<svg width="13" height="12" viewBox="0 0 13 12" fill="none" xmlns="http://www.w3.org/2000/svg">
<path id="exclamationmark.circle.fill" d="M6.72855 12C10.0171 12 12.7314 9.28433 12.7314 6C12.7314 2.71567 10.0113 0 6.72275 0C3.44 0 0.731445 2.71567 0.731445 6C0.731445 9.28433 3.4458 12 6.72855 12ZM6.72855 6.99226C6.38635 6.99226 6.18915 6.80077 6.17755 6.45261L6.09636 3.55706C6.08476 3.19729 6.33995 2.94778 6.72275 2.94778C7.09394 2.94778 7.36653 3.20309 7.35494 3.56286L7.26214 6.45261C7.25054 6.80658 7.05914 6.99226 6.72855 6.99226ZM6.72855 9C6.33415 9 6.00936 8.71567 6.00936 8.33269C6.00936 7.94971 6.32835 7.66538 6.72855 7.66538C7.12294 7.66538 7.44193 7.94971 7.44193 8.33269C7.44193 8.72147 7.11714 9 6.72855 9Z" fill="white" fill-opacity="0.5"/>
</svg>
