<svg width="12" height="12" viewBox="0 0 12 12" fill="none" xmlns="http://www.w3.org/2000/svg">
<path id="magnifyingglass.circle.fill" d="M5.9971 12C9.28565 12 12 9.28433 12 6C12 2.71567 9.27985 0 5.9913 0C2.70855 0 0 2.71567 0 6C0 9.28433 2.71435 12 5.9971 12ZM2.86515 5.34429C2.86515 3.96325 3.99613 2.82592 5.37071 2.82592C6.75109 2.82592 7.88207 3.95745 7.88207 5.34429C7.88207 5.83752 7.73127 6.29594 7.48188 6.68472L8.93185 8.1354C9.04785 8.25145 9.11165 8.39652 9.11165 8.54739C9.11165 8.88975 8.87965 9.13926 8.54906 9.13926C8.36346 9.13926 8.21846 9.07543 8.08507 8.93617L6.64089 7.4971C6.2697 7.7176 5.8347 7.85106 5.37071 7.85106C3.99613 7.85106 2.86515 6.71954 2.86515 5.34429ZM3.76414 5.34429C3.76414 6.2205 4.48913 6.95164 5.37071 6.95164C6.2523 6.95164 6.97728 6.2205 6.97728 5.34429C6.97728 4.45648 6.2523 3.73114 5.37071 3.73114C4.48913 3.73114 3.76414 4.46228 3.76414 5.34429Z" fill="#838385"/>
</svg>
