<svg width="166" height="50" viewBox="0 0 166 50" fill="none" xmlns="http://www.w3.org/2000/svg">
<path d="M94.7432 17.4434V13.7707H88.3285H88.3346V11.1958H94.7432V7.52316L88.1468 0.898438H84.4891V7.33457H81.9259V0.898438H78.2683L71.6725 7.52316H71.6719V11.1965H78.0805V13.7707H71.6719V17.4441L78.2683 24.0695H81.9253V17.6333H84.4885V24.0695H88.1461L94.7425 17.4447H94.7419L94.7432 17.4434ZM88.3346 1.99762L93.6487 7.33457H88.3346V1.99762ZM88.3346 7.97845H94.1021V10.5526H88.3346V7.97845ZM78.0805 10.5526H72.313V7.97845H78.0812V10.5526H78.0805ZM78.0805 7.33457H72.7664L78.0805 1.99829V7.33524V7.33457ZM78.0805 22.9703L72.7657 17.6327H78.0805V22.9703ZM78.0805 16.9888H72.313V17.1774V14.4139H78.0812V16.9881L78.0805 16.9888ZM85.1303 1.54232H87.6941V7.33457H85.1303V1.54232ZM87.6934 7.97845V10.5526C86.2771 10.5526 85.1296 9.40025 85.1296 7.97845H87.6934ZM78.7216 1.54232H81.2855V7.33457H78.7216V1.54232ZM78.7216 7.97845H81.2855C81.2855 9.40025 80.138 10.5526 78.7223 10.5526V7.97845H78.7216ZM81.2848 23.4256H78.7216V17.6327H81.2848V23.4256ZM78.7216 16.9888V14.4146C80.1374 14.4146 81.2848 15.567 81.2848 16.9888H78.7216ZM87.6934 23.4256H85.1296V17.6327H87.6934V23.4256ZM85.1303 16.9894C85.1303 15.567 86.2777 14.4146 87.6934 14.4146V16.9894H85.1303ZM87.6934 13.7707C85.9236 13.7707 84.4891 15.2114 84.4891 16.9888H81.9259C81.9259 15.2114 80.4915 13.7707 78.7216 13.7707V11.1965C80.4915 11.1965 81.9259 9.75587 81.9259 7.97845H84.4891C84.4891 9.75587 85.9236 11.1965 87.6934 11.1965V13.7714V13.7707ZM88.3346 22.971V17.6327H93.6501L88.3346 22.971ZM94.1021 16.9894H88.3346V14.4146H94.1021V16.9894Z" fill="#F1F6F7"/>
<path d="M17.2797 36.478C13.5947 36.478 11.2773 38.8817 11.2773 42.7351C11.2773 46.5885 13.5567 48.9921 17.2797 48.9921C21.0027 48.9921 23.2821 46.5885 23.2821 42.7351C23.2441 38.8817 20.9647 36.478 17.2797 36.478ZM17.2797 48.2672C13.9366 48.2672 13.2148 45.2532 13.2148 42.6969C13.2148 39.1487 14.6584 37.2029 17.2797 37.2029C19.901 37.2029 21.3446 39.1869 21.3446 42.7351C21.3446 45.2532 20.6228 48.2672 17.2797 48.2672Z" fill="#F1F6F7"/>
<path d="M34.5265 44.3759C34.5265 46.7032 33.4248 47.8859 31.2214 47.8859C29.018 47.8859 27.8023 46.6269 27.8023 44.3759V36.6309H26.0928V44.4522C26.0928 47.3518 27.7643 48.9924 30.8035 48.9924C33.8427 48.9924 35.5142 47.3899 35.5142 44.4522V36.6309H34.5265V44.3759Z" fill="#F1F6F7"/>
<path d="M47.4426 40.1028C47.4426 37.8517 45.7331 36.6309 42.466 36.6309H39.0469V48.8397H40.8704V43.422H42.39L46.3295 48.8397H48.4303L44.3274 43.2694C46.3409 42.9261 47.4426 41.8196 47.4426 40.1028ZM42.314 42.6971H40.8704V37.3939H42.314C44.4794 37.3939 45.5811 38.3096 45.5811 40.1409C45.5811 41.9722 44.5174 42.6971 42.314 42.6971Z" fill="#F1F6F7"/>
<path d="M74.8344 36.478C71.1494 36.478 68.832 38.8817 68.832 42.7351C68.832 46.5885 71.1114 48.9921 74.8344 48.9921C78.5574 48.9921 80.8368 46.5885 80.8368 42.7351C80.8368 38.8817 78.5194 36.478 74.8344 36.478ZM74.8344 48.2672C71.4913 48.2672 70.7695 45.2532 70.7695 42.6969C70.7695 39.1487 72.2131 37.2029 74.8344 37.2029C77.4557 37.2029 78.8993 39.1869 78.8993 42.7351C78.8993 45.2532 78.2155 48.2672 74.8344 48.2672Z" fill="#F1F6F7"/>
<path d="M85.5843 36.6309H83.7607V48.8397H91.3587V48.0767H85.5843V36.6309Z" fill="#F1F6F7"/>
<path d="M95.4623 36.6309H93.6768V48.8397H101.275V48.0767H95.4623V36.6309Z" fill="#F1F6F7"/>
<path d="M105.377 42.9261H110.126V42.163H105.377V37.3558H111.38V36.6309H103.554V48.8397H111.532V48.0767H105.377V42.9261Z" fill="#F1F6F7"/>
<path d="M124.789 37.3558H128.588V48.8397H130.374V37.3558H134.021V36.6309H124.789V37.3558Z" fill="#F1F6F7"/>
<path d="M138.2 36.6309H136.377V48.8397H138.2V36.6309Z" fill="#F1F6F7"/>
<path d="M147.09 36.478C143.405 36.478 141.088 38.8817 141.088 42.7351C141.088 46.5885 143.367 48.9921 147.09 48.9921C150.813 48.9921 153.093 46.5885 153.093 42.7351C153.093 38.8817 150.775 36.478 147.09 36.478ZM147.09 48.2672C143.747 48.2672 143.025 45.2532 143.025 42.6969C143.025 39.1487 144.469 37.2029 147.09 37.2029C149.712 37.2029 151.155 39.1869 151.155 42.7351C151.155 45.2532 150.471 48.2672 147.09 48.2672Z" fill="#F1F6F7"/>
<path d="M164.452 36.6309V46.5506C164.262 46.1691 164.034 45.7875 163.806 45.4441L157.69 36.669L157.652 36.6309H156.019V48.8397H156.968V38.5385C157.272 39.1871 157.69 39.8357 158.146 40.4461L164.023 48.8397H165.402V36.6309H164.452Z" fill="#F1F6F7"/>
<path d="M0.601562 48.8391H2.72899V42.2387H8.61739V41.3612H2.72899V35.066H10.061V34.1885H0.601562V48.8391Z" fill="#F1F6F7"/>
<path d="M112.747 42.7351C112.747 46.5504 115.14 48.9921 118.863 48.9921C120.953 48.9921 122.434 48.4198 123.384 47.7331V45.4058H123.194C122.624 47.199 120.877 48.1528 119.395 48.1528C116.508 48.1528 114.647 46.0162 114.647 42.7351C114.647 39.4539 116.508 37.3174 119.357 37.3174C121.143 37.3174 122.662 38.462 123.232 40.0262H123.422V37.8897C122.662 37.2029 121.219 36.478 118.863 36.478C115.14 36.478 112.747 38.9198 112.747 42.7351Z" fill="#F1F6F7"/>
<path d="M61.3861 48.1909C57.8911 48.1909 55.6497 45.4821 55.6497 41.4761C55.6497 37.47 57.8911 34.7993 61.3481 34.7993C65.2991 34.7993 66.5907 38.2331 66.5907 38.2331H66.7427V35.6768C66.7427 35.6768 65.1471 33.96 61.3102 33.96C56.6374 33.96 53.4463 36.9359 53.4463 41.4761C53.4463 46.0162 56.6374 48.9921 61.0442 48.9921C65.1851 48.9921 66.7807 47.3897 66.7807 47.3897V44.719H66.6287C65.717 47.0464 63.6655 48.1909 61.3861 48.1909Z" fill="#F1F6F7"/>
</svg>
